<mxfile host="app.diagrams.net" modified="2023-10-23T13:39:30.742Z" agent="Mozilla/5.0 (Windows NT 10.0; Win64; x64) AppleWebKit/537.36 (KHTML, like Gecko) Chrome/118.0.0.0 Safari/537.36" etag="laaeybw5yiOIKTBh5n61" version="22.0.6" type="device">
  <diagram name="Page-1" id="mRcAXv007ebeFQh-EOyL">
    <mxGraphModel dx="1547" dy="1004" grid="0" gridSize="10" guides="1" tooltips="1" connect="1" arrows="1" fold="1" page="0" pageScale="1" pageWidth="850" pageHeight="1100" background="none" math="0" shadow="0">
      <root>
        <mxCell id="0" />
        <mxCell id="1" parent="0" />
        <mxCell id="l4l_UeiJfumPQIR5vpVy-1" value="&lt;font style=&quot;font-size: 15px;&quot;&gt;1.1&lt;br&gt;&lt;font style=&quot;font-size: 15px;&quot;&gt;&lt;br&gt;Manage&amp;nbsp;&lt;br&gt;Debtor&amp;nbsp;&lt;br&gt;Information&lt;/font&gt;&amp;nbsp;&lt;/font&gt;" style="rounded=1;whiteSpace=wrap;html=1;labelPosition=center;verticalLabelPosition=middle;align=center;verticalAlign=middle;fontFamily=Times New Roman;movable=1;resizable=1;rotatable=1;deletable=1;editable=1;locked=0;connectable=1;" vertex="1" parent="1">
          <mxGeometry x="100" y="50" width="130" height="110" as="geometry" />
        </mxCell>
        <mxCell id="l4l_UeiJfumPQIR5vpVy-2" value="&lt;font style=&quot;font-size: 15px;&quot;&gt;1.2&lt;br&gt;&lt;br&gt;Manage Loan&amp;nbsp;&lt;br&gt;Records&amp;nbsp;&lt;/font&gt;" style="rounded=1;whiteSpace=wrap;html=1;movable=1;resizable=1;rotatable=1;deletable=1;editable=1;locked=0;connectable=1;" vertex="1" parent="1">
          <mxGeometry x="90" y="220" width="120" height="110" as="geometry" />
        </mxCell>
        <mxCell id="l4l_UeiJfumPQIR5vpVy-3" value="&lt;font style=&quot;font-size: 15px;&quot;&gt;1.3&lt;br&gt;&lt;br&gt;Monitor&amp;nbsp;&lt;br&gt;Payments&amp;nbsp;&lt;/font&gt;" style="rounded=1;whiteSpace=wrap;html=1;movable=1;resizable=1;rotatable=1;deletable=1;editable=1;locked=0;connectable=1;" vertex="1" parent="1">
          <mxGeometry x="90" y="420" width="120" height="110" as="geometry" />
        </mxCell>
        <mxCell id="l4l_UeiJfumPQIR5vpVy-4" value="&lt;font style=&quot;font-size: 15px;&quot;&gt;1.4&lt;br&gt;&lt;br&gt;Checks and Updates&amp;nbsp;&lt;br&gt;Loan Status&amp;nbsp;&lt;/font&gt;" style="rounded=1;whiteSpace=wrap;html=1;movable=1;resizable=1;rotatable=1;deletable=1;editable=1;locked=0;connectable=1;" vertex="1" parent="1">
          <mxGeometry x="90" y="580" width="120" height="110" as="geometry" />
        </mxCell>
        <mxCell id="l4l_UeiJfumPQIR5vpVy-5" value="&lt;font style=&quot;font-size: 15px;&quot;&gt;Admin&lt;/font&gt;" style="rounded=1;whiteSpace=wrap;html=1;movable=1;resizable=1;rotatable=1;deletable=1;editable=1;locked=0;connectable=1;" vertex="1" parent="1">
          <mxGeometry x="340" y="340" width="120" height="60" as="geometry" />
        </mxCell>
        <mxCell id="l4l_UeiJfumPQIR5vpVy-6" value="&lt;font style=&quot;font-size: 15px;&quot;&gt;Debtor&lt;/font&gt;" style="rounded=1;whiteSpace=wrap;html=1;movable=1;resizable=1;rotatable=1;deletable=1;editable=1;locked=0;connectable=1;" vertex="1" parent="1">
          <mxGeometry x="-170" y="340" width="130" height="60" as="geometry" />
        </mxCell>
        <mxCell id="l4l_UeiJfumPQIR5vpVy-14" value="" style="endArrow=classic;html=1;rounded=0;entryX=0;entryY=0.25;entryDx=0;entryDy=0;movable=1;resizable=1;rotatable=1;deletable=1;editable=1;locked=0;connectable=1;" edge="1" parent="1" target="l4l_UeiJfumPQIR5vpVy-1">
          <mxGeometry relative="1" as="geometry">
            <mxPoint x="-160" y="339" as="sourcePoint" />
            <mxPoint x="110" y="30" as="targetPoint" />
            <Array as="points">
              <mxPoint x="-160" y="78" />
            </Array>
          </mxGeometry>
        </mxCell>
        <mxCell id="l4l_UeiJfumPQIR5vpVy-15" value="&lt;font style=&quot;font-size: 16px;&quot;&gt;New&amp;nbsp; Information&amp;nbsp;&amp;nbsp;&lt;/font&gt;" style="edgeLabel;resizable=1;html=1;align=center;verticalAlign=middle;movable=1;rotatable=1;deletable=1;editable=1;locked=0;connectable=1;" connectable="0" vertex="1" parent="l4l_UeiJfumPQIR5vpVy-14">
          <mxGeometry relative="1" as="geometry">
            <mxPoint x="130" y="2" as="offset" />
          </mxGeometry>
        </mxCell>
        <mxCell id="l4l_UeiJfumPQIR5vpVy-17" value="" style="endArrow=classic;html=1;rounded=0;exitX=-0.023;exitY=0.616;exitDx=0;exitDy=0;verticalAlign=middle;entryX=0.395;entryY=-0.03;entryDx=0;entryDy=0;entryPerimeter=0;exitPerimeter=0;movable=1;resizable=1;rotatable=1;deletable=1;editable=1;locked=0;connectable=1;" edge="1" parent="1" source="l4l_UeiJfumPQIR5vpVy-1" target="l4l_UeiJfumPQIR5vpVy-6">
          <mxGeometry relative="1" as="geometry">
            <mxPoint x="100" y="109.26" as="sourcePoint" />
            <mxPoint x="-70.03999999999996" y="310" as="targetPoint" />
            <Array as="points">
              <mxPoint x="-120" y="118" />
            </Array>
          </mxGeometry>
        </mxCell>
        <mxCell id="l4l_UeiJfumPQIR5vpVy-18" value="&lt;font style=&quot;font-size: 14px;&quot;&gt;&lt;font style=&quot;font-size: 14px;&quot;&gt;Confirmed Information&lt;/font&gt;&amp;nbsp;&lt;/font&gt;" style="edgeLabel;resizable=1;html=1;align=center;verticalAlign=middle;movable=1;rotatable=1;deletable=1;editable=1;locked=0;connectable=1;" connectable="0" vertex="1" parent="l4l_UeiJfumPQIR5vpVy-17">
          <mxGeometry relative="1" as="geometry">
            <mxPoint x="100" as="offset" />
          </mxGeometry>
        </mxCell>
        <mxCell id="l4l_UeiJfumPQIR5vpVy-19" value="" style="endArrow=classic;html=1;rounded=0;exitX=0.25;exitY=0;exitDx=0;exitDy=0;entryX=0.672;entryY=0.023;entryDx=0;entryDy=0;entryPerimeter=0;movable=1;resizable=1;rotatable=1;deletable=1;editable=1;locked=0;connectable=1;" edge="1" parent="1" source="l4l_UeiJfumPQIR5vpVy-2" target="l4l_UeiJfumPQIR5vpVy-6">
          <mxGeometry relative="1" as="geometry">
            <mxPoint x="106" y="200" as="sourcePoint" />
            <mxPoint x="-80" y="330" as="targetPoint" />
            <Array as="points">
              <mxPoint x="120" y="180" />
              <mxPoint x="60" y="180" />
              <mxPoint x="-80" y="180" />
            </Array>
          </mxGeometry>
        </mxCell>
        <mxCell id="l4l_UeiJfumPQIR5vpVy-20" value="&lt;font style=&quot;font-size: 14px;&quot;&gt;List Loan Offers&amp;nbsp;&lt;/font&gt;" style="edgeLabel;resizable=1;html=1;align=center;verticalAlign=middle;movable=1;rotatable=1;deletable=1;editable=1;locked=0;connectable=1;" connectable="0" vertex="1" parent="l4l_UeiJfumPQIR5vpVy-19">
          <mxGeometry relative="1" as="geometry">
            <mxPoint x="39" as="offset" />
          </mxGeometry>
        </mxCell>
        <mxCell id="l4l_UeiJfumPQIR5vpVy-21" value="" style="endArrow=classic;html=1;rounded=0;entryX=0.835;entryY=-0.01;entryDx=0;entryDy=0;entryPerimeter=0;movable=1;resizable=1;rotatable=1;deletable=1;editable=1;locked=0;connectable=1;" edge="1" parent="1" target="l4l_UeiJfumPQIR5vpVy-5">
          <mxGeometry relative="1" as="geometry">
            <mxPoint x="230" y="70" as="sourcePoint" />
            <mxPoint x="400" y="70" as="targetPoint" />
            <Array as="points">
              <mxPoint x="370" y="70" />
              <mxPoint x="440" y="70" />
              <mxPoint x="440" y="300" />
            </Array>
          </mxGeometry>
        </mxCell>
        <mxCell id="l4l_UeiJfumPQIR5vpVy-22" value="&lt;font style=&quot;font-size: 15px;&quot;&gt;New Information&amp;nbsp;&lt;/font&gt;" style="edgeLabel;resizable=1;html=1;align=center;verticalAlign=middle;movable=1;rotatable=1;deletable=1;editable=1;locked=0;connectable=1;" connectable="0" vertex="1" parent="l4l_UeiJfumPQIR5vpVy-21">
          <mxGeometry relative="1" as="geometry">
            <mxPoint x="-100" y="-29" as="offset" />
          </mxGeometry>
        </mxCell>
        <mxCell id="l4l_UeiJfumPQIR5vpVy-25" value="" style="endArrow=classic;html=1;rounded=0;entryX=1;entryY=0.636;entryDx=0;entryDy=0;entryPerimeter=0;exitX=0.5;exitY=0;exitDx=0;exitDy=0;movable=1;resizable=1;rotatable=1;deletable=1;editable=1;locked=0;connectable=1;" edge="1" parent="1" source="l4l_UeiJfumPQIR5vpVy-5" target="l4l_UeiJfumPQIR5vpVy-1">
          <mxGeometry relative="1" as="geometry">
            <mxPoint x="340" y="300" as="sourcePoint" />
            <mxPoint x="230.00000000000003" y="116.33000000000004" as="targetPoint" />
            <Array as="points">
              <mxPoint x="400" y="310" />
              <mxPoint x="400" y="280" />
              <mxPoint x="400" y="120" />
              <mxPoint x="287.27" y="120" />
              <mxPoint x="257.27" y="120" />
            </Array>
          </mxGeometry>
        </mxCell>
        <mxCell id="l4l_UeiJfumPQIR5vpVy-26" value="&lt;font style=&quot;font-size: 14px;&quot;&gt;Confirmed Information&amp;nbsp;&lt;/font&gt;" style="edgeLabel;resizable=1;html=1;align=center;verticalAlign=middle;movable=1;rotatable=1;deletable=1;editable=1;locked=0;connectable=1;" connectable="0" vertex="1" parent="l4l_UeiJfumPQIR5vpVy-25">
          <mxGeometry relative="1" as="geometry">
            <mxPoint x="-80" y="-25" as="offset" />
          </mxGeometry>
        </mxCell>
        <mxCell id="l4l_UeiJfumPQIR5vpVy-27" value="" style="endArrow=classic;html=1;rounded=0;entryX=0.75;entryY=0;entryDx=0;entryDy=0;fontSize=12;exitX=0.161;exitY=-0.048;exitDx=0;exitDy=0;exitPerimeter=0;movable=1;resizable=1;rotatable=1;deletable=1;editable=1;locked=0;connectable=1;" edge="1" parent="1" source="l4l_UeiJfumPQIR5vpVy-5" target="l4l_UeiJfumPQIR5vpVy-2">
          <mxGeometry relative="1" as="geometry">
            <mxPoint x="308" y="290" as="sourcePoint" />
            <mxPoint x="160" y="180" as="targetPoint" />
            <Array as="points">
              <mxPoint x="360" y="180" />
              <mxPoint x="180" y="180" />
            </Array>
          </mxGeometry>
        </mxCell>
        <mxCell id="l4l_UeiJfumPQIR5vpVy-28" value="&lt;font style=&quot;font-size: 14px;&quot;&gt;Loan Offers&amp;nbsp;&lt;/font&gt;" style="edgeLabel;resizable=1;html=1;align=center;verticalAlign=middle;movable=1;rotatable=1;deletable=1;editable=1;locked=0;connectable=1;" connectable="0" vertex="1" parent="l4l_UeiJfumPQIR5vpVy-27">
          <mxGeometry relative="1" as="geometry">
            <mxPoint x="-66" as="offset" />
          </mxGeometry>
        </mxCell>
        <mxCell id="l4l_UeiJfumPQIR5vpVy-29" value="" style="endArrow=classic;html=1;rounded=0;entryX=0.25;entryY=1;entryDx=0;entryDy=0;movable=1;resizable=1;rotatable=1;deletable=1;editable=1;locked=0;connectable=1;" edge="1" parent="1" target="l4l_UeiJfumPQIR5vpVy-2">
          <mxGeometry relative="1" as="geometry">
            <mxPoint x="-40" y="360" as="sourcePoint" />
            <mxPoint x="130" y="360" as="targetPoint" />
            <Array as="points">
              <mxPoint x="120" y="360" />
            </Array>
          </mxGeometry>
        </mxCell>
        <mxCell id="l4l_UeiJfumPQIR5vpVy-33" value="&lt;font style=&quot;font-size: 14px;&quot;&gt;Choose Loan&lt;/font&gt;" style="edgeLabel;html=1;align=center;verticalAlign=middle;resizable=1;points=[];movable=1;rotatable=1;deletable=1;editable=1;locked=0;connectable=1;" vertex="1" connectable="0" parent="l4l_UeiJfumPQIR5vpVy-29">
          <mxGeometry x="-0.5053" y="-1" relative="1" as="geometry">
            <mxPoint x="23" as="offset" />
          </mxGeometry>
        </mxCell>
        <mxCell id="l4l_UeiJfumPQIR5vpVy-35" value="" style="endArrow=classic;html=1;rounded=0;exitX=0.651;exitY=1.005;exitDx=0;exitDy=0;exitPerimeter=0;entryX=0;entryY=0.333;entryDx=0;entryDy=0;entryPerimeter=0;movable=1;resizable=1;rotatable=1;deletable=1;editable=1;locked=0;connectable=1;" edge="1" parent="1" source="l4l_UeiJfumPQIR5vpVy-2" target="l4l_UeiJfumPQIR5vpVy-5">
          <mxGeometry relative="1" as="geometry">
            <mxPoint x="140" y="350" as="sourcePoint" />
            <mxPoint x="270" y="350" as="targetPoint" />
            <Array as="points">
              <mxPoint x="168" y="360" />
              <mxPoint x="220" y="360" />
            </Array>
          </mxGeometry>
        </mxCell>
        <mxCell id="l4l_UeiJfumPQIR5vpVy-36" value="&lt;font style=&quot;font-size: 14px;&quot;&gt;Debator Loan Detaills&amp;nbsp;&lt;/font&gt;" style="edgeLabel;resizable=1;html=1;align=center;verticalAlign=middle;movable=1;rotatable=1;deletable=1;editable=1;locked=0;connectable=1;" connectable="0" vertex="1" parent="l4l_UeiJfumPQIR5vpVy-35">
          <mxGeometry relative="1" as="geometry" />
        </mxCell>
        <mxCell id="l4l_UeiJfumPQIR5vpVy-37" value="" style="endArrow=classic;html=1;rounded=0;entryX=0;entryY=0.364;entryDx=0;entryDy=0;entryPerimeter=0;movable=1;resizable=1;rotatable=1;deletable=1;editable=1;locked=0;connectable=1;" edge="1" parent="1" target="l4l_UeiJfumPQIR5vpVy-3">
          <mxGeometry relative="1" as="geometry">
            <mxPoint x="-84" y="400" as="sourcePoint" />
            <mxPoint x="20" y="430" as="targetPoint" />
            <Array as="points">
              <mxPoint x="-84" y="460" />
              <mxPoint x="-10" y="460" />
            </Array>
          </mxGeometry>
        </mxCell>
        <mxCell id="l4l_UeiJfumPQIR5vpVy-38" value="&lt;font style=&quot;font-size: 14px;&quot;&gt;Payment Info&amp;nbsp;&lt;/font&gt;" style="edgeLabel;resizable=1;html=1;align=center;verticalAlign=middle;movable=1;rotatable=1;deletable=1;editable=1;locked=0;connectable=1;" connectable="0" vertex="1" parent="l4l_UeiJfumPQIR5vpVy-37">
          <mxGeometry relative="1" as="geometry" />
        </mxCell>
        <mxCell id="l4l_UeiJfumPQIR5vpVy-39" value="" style="endArrow=classic;html=1;rounded=0;entryX=0.25;entryY=1;entryDx=0;entryDy=0;movable=1;resizable=1;rotatable=1;deletable=1;editable=1;locked=0;connectable=1;" edge="1" parent="1" target="l4l_UeiJfumPQIR5vpVy-5">
          <mxGeometry relative="1" as="geometry">
            <mxPoint x="210" y="460" as="sourcePoint" />
            <mxPoint x="410" y="460" as="targetPoint" />
            <Array as="points">
              <mxPoint x="290" y="460" />
              <mxPoint x="370" y="460" />
            </Array>
          </mxGeometry>
        </mxCell>
        <mxCell id="l4l_UeiJfumPQIR5vpVy-40" value="&lt;font style=&quot;font-size: 14px;&quot;&gt;Debators loan Details&amp;nbsp;&lt;/font&gt;" style="edgeLabel;resizable=1;html=1;align=center;verticalAlign=middle;movable=1;rotatable=1;deletable=1;editable=1;locked=0;connectable=1;" connectable="0" vertex="1" parent="l4l_UeiJfumPQIR5vpVy-39">
          <mxGeometry relative="1" as="geometry">
            <mxPoint x="-24" as="offset" />
          </mxGeometry>
        </mxCell>
        <mxCell id="l4l_UeiJfumPQIR5vpVy-41" value="" style="endArrow=classic;html=1;rounded=0;entryX=-0.012;entryY=0.365;entryDx=0;entryDy=0;entryPerimeter=0;movable=1;resizable=1;rotatable=1;deletable=1;editable=1;locked=0;connectable=1;exitX=0.402;exitY=0.983;exitDx=0;exitDy=0;exitPerimeter=0;" edge="1" parent="1" source="l4l_UeiJfumPQIR5vpVy-6" target="l4l_UeiJfumPQIR5vpVy-4">
          <mxGeometry relative="1" as="geometry">
            <mxPoint x="-120" y="410" as="sourcePoint" />
            <mxPoint x="-20" y="510" as="targetPoint" />
            <Array as="points">
              <mxPoint x="-118" y="620" />
            </Array>
          </mxGeometry>
        </mxCell>
        <mxCell id="l4l_UeiJfumPQIR5vpVy-45" value="&lt;font style=&quot;font-size: 14px;&quot;&gt;Loan Status Inquiry&amp;nbsp;&lt;/font&gt;" style="edgeLabel;html=1;align=center;verticalAlign=middle;resizable=1;points=[];movable=1;rotatable=1;deletable=1;editable=1;locked=0;connectable=1;" vertex="1" connectable="0" parent="l4l_UeiJfumPQIR5vpVy-41">
          <mxGeometry x="0.5012" relative="1" as="geometry">
            <mxPoint as="offset" />
          </mxGeometry>
        </mxCell>
        <mxCell id="l4l_UeiJfumPQIR5vpVy-49" value="" style="endArrow=classic;html=1;rounded=0;verticalAlign=top;horizontal=1;entryX=0.071;entryY=1.021;entryDx=0;entryDy=0;entryPerimeter=0;exitX=-0.005;exitY=0.922;exitDx=0;exitDy=0;movable=1;resizable=1;rotatable=1;deletable=1;editable=1;locked=0;connectable=1;exitPerimeter=0;" edge="1" parent="1" source="l4l_UeiJfumPQIR5vpVy-4">
          <mxGeometry relative="1" as="geometry">
            <mxPoint x="-150" y="680" as="sourcePoint" />
            <mxPoint x="-151.4799999999999" y="400" as="targetPoint" />
            <Array as="points">
              <mxPoint x="-151" y="680" />
              <mxPoint x="-150" y="510" />
            </Array>
          </mxGeometry>
        </mxCell>
        <mxCell id="l4l_UeiJfumPQIR5vpVy-50" value="&lt;font style=&quot;font-size: 14px;&quot;&gt;Loan Status Details&amp;nbsp;&lt;/font&gt;" style="edgeLabel;resizable=1;html=1;align=center;verticalAlign=middle;movable=1;rotatable=1;deletable=1;editable=1;locked=0;connectable=1;" connectable="0" vertex="1" parent="l4l_UeiJfumPQIR5vpVy-49">
          <mxGeometry relative="1" as="geometry">
            <mxPoint x="121" y="20" as="offset" />
          </mxGeometry>
        </mxCell>
        <mxCell id="l4l_UeiJfumPQIR5vpVy-52" value="" style="endArrow=classic;html=1;rounded=0;entryX=0.812;entryY=1.05;entryDx=0;entryDy=0;movable=1;resizable=1;rotatable=1;deletable=1;editable=1;locked=0;connectable=1;exitX=0.995;exitY=0.864;exitDx=0;exitDy=0;exitPerimeter=0;entryPerimeter=0;" edge="1" parent="1" source="l4l_UeiJfumPQIR5vpVy-4" target="l4l_UeiJfumPQIR5vpVy-5">
          <mxGeometry relative="1" as="geometry">
            <mxPoint x="210" y="670" as="sourcePoint" />
            <mxPoint x="450.57142857142856" y="670" as="targetPoint" />
            <Array as="points">
              <mxPoint x="437" y="675" />
            </Array>
          </mxGeometry>
        </mxCell>
        <mxCell id="l4l_UeiJfumPQIR5vpVy-53" value="&lt;font style=&quot;font-size: 14px;&quot;&gt;List Loan Status Info&amp;nbsp;&lt;/font&gt;" style="edgeLabel;resizable=1;html=1;align=center;verticalAlign=middle;movable=1;rotatable=1;deletable=1;editable=1;locked=0;connectable=1;" connectable="0" vertex="1" parent="l4l_UeiJfumPQIR5vpVy-52">
          <mxGeometry relative="1" as="geometry">
            <mxPoint x="-128" y="22" as="offset" />
          </mxGeometry>
        </mxCell>
        <mxCell id="l4l_UeiJfumPQIR5vpVy-56" value="" style="endArrow=classic;html=1;rounded=0;entryX=1.036;entryY=0.303;entryDx=0;entryDy=0;entryPerimeter=0;exitX=0.5;exitY=1;exitDx=0;exitDy=0;movable=1;resizable=1;rotatable=1;deletable=1;editable=1;locked=0;connectable=1;" edge="1" parent="1" source="l4l_UeiJfumPQIR5vpVy-5" target="l4l_UeiJfumPQIR5vpVy-4">
          <mxGeometry relative="1" as="geometry">
            <mxPoint x="400" y="620" as="sourcePoint" />
            <mxPoint x="370" y="500" as="targetPoint" />
            <Array as="points">
              <mxPoint x="400" y="613" />
            </Array>
          </mxGeometry>
        </mxCell>
        <mxCell id="l4l_UeiJfumPQIR5vpVy-57" value="&lt;font style=&quot;font-size: 14px;&quot;&gt;Updated Loan Status&amp;nbsp;&lt;/font&gt;" style="edgeLabel;resizable=1;html=1;align=center;verticalAlign=middle;movable=1;rotatable=1;deletable=1;editable=1;locked=0;connectable=1;" connectable="0" vertex="1" parent="l4l_UeiJfumPQIR5vpVy-56">
          <mxGeometry relative="1" as="geometry">
            <mxPoint x="-80" y="11" as="offset" />
          </mxGeometry>
        </mxCell>
        <mxCell id="l4l_UeiJfumPQIR5vpVy-60" value="&lt;font style=&quot;font-size: 28px;&quot;&gt;LOAN MANAGEMENT SYSTENM&amp;nbsp;&lt;/font&gt;" style="text;html=1;align=center;verticalAlign=middle;resizable=0;points=[];autosize=1;strokeColor=none;fillColor=none;" vertex="1" parent="1">
          <mxGeometry x="-80" y="-15" width="460" height="50" as="geometry" />
        </mxCell>
      </root>
    </mxGraphModel>
  </diagram>
</mxfile>
